<?xml version="1.0" standalone="no"?>
<!DOCTYPE svg PUBLIC "-//W3C//DTD SVG 20010904//EN"
 "http://www.w3.org/TR/2001/REC-SVG-20010904/DTD/svg10.dtd">
<svg version="1.0" xmlns="http://www.w3.org/2000/svg"
 width="64.000000pt" height="64.000000pt" viewBox="0 0 64.000000 64.000000"
 preserveAspectRatio="xMidYMid meet">

<g transform="translate(0.000000,64.000000) scale(0.100000,-0.100000)"
fill="rgba(79, 97, 255, 0.954)" stroke="none">
<path d="M67 534 c-11 -11 3 -24 24 -24 16 0 18 -3 9 -19 -16 -31 -13 -101 5
-101 11 0 15 11 15 38 0 52 12 67 39 52 24 -12 81 -95 81 -117 0 -9 -31 -13
-118 -15 l-117 -3 0 -60 c0 -47 3 -60 15 -60 11 0 16 13 18 48 l3 47 279 0
279 0 3 -47 c2 -35 7 -48 18 -48 12 0 15 13 15 60 l0 60 -74 3 c-63 3 -74 6
-78 22 -7 26 -23 26 -30 0 -3 -13 -14 -20 -28 -20 -15 0 -26 8 -30 20 -8 25
-37 27 -33 3 2 -14 -5 -19 -39 -21 l-42 -3 -30 58 c-32 64 -58 92 -110 117
-36 17 -63 20 -74 10z"/>
<path d="M382 505 c-11 -14 -29 -25 -41 -25 -27 0 -61 -34 -61 -60 0 -28 19
-25 30 5 7 19 17 25 39 25 20 0 34 8 45 25 18 28 47 32 66 10 7 -8 27 -15 45
-15 41 0 61 -21 46 -49 -14 -26 -14 -31 4 -31 19 0 38 36 30 60 -10 32 -34 50
-68 50 -18 0 -41 7 -51 15 -29 22 -62 18 -84 -10z"/>
<path d="M516 271 c-4 -7 -5 -15 -2 -18 9 -9 19 4 14 18 -4 11 -6 11 -12 0z"/>
<path d="M110 260 c0 -5 5 -10 10 -10 6 0 10 5 10 10 0 6 -4 10 -10 10 -5 0
-10 -4 -10 -10z"/>
<path d="M63 178 c6 -19 508 -19 515 0 3 9 -53 12 -258 12 -205 0 -261 -3
-257 -12z"/>
<path d="M7 134 c-12 -12 -8 -109 5 -122 19 -19 601 -17 617 2 18 21 10 121
-9 121 -11 0 -16 -14 -18 -52 l-3 -53 -279 0 -279 0 -3 52 c-3 48 -15 68 -31
52z"/>
<path d="M105 101 c-7 -12 12 -24 25 -16 11 7 4 25 -10 25 -5 0 -11 -4 -15 -9z"/>
<path d="M510 95 c0 -8 5 -15 10 -15 6 0 10 7 10 15 0 8 -4 15 -10 15 -5 0
-10 -7 -10 -15z"/>
</g>
</svg>
