<?xml version="1.0" standalone="no"?>
<!DOCTYPE svg PUBLIC "-//W3C//DTD SVG 20010904//EN"
 "http://www.w3.org/TR/2001/REC-SVG-20010904/DTD/svg10.dtd">
<svg version="1.0" xmlns="http://www.w3.org/2000/svg"
 width="50.000000pt" height="50.000000pt" viewBox="0 0 50.000000 50.000000"
 preserveAspectRatio="xMidYMid meet">

<g transform="translate(0.000000,50.000000) scale(0.100000,-0.100000)"
fill="rgba(79, 97, 255, 0.954)" stroke="none">
<path d="M197 482 c-21 -23 -22 -56 -2 -72 13 -11 14 -15 2 -29 -22 -25 -32
-370 -11 -378 24 -9 44 17 44 58 0 59 19 57 22 -3 3 -49 5 -53 28 -53 23 0 25
4 28 59 3 58 -22 156 -40 156 -11 0 -10 -12 7 -60 17 -48 20 -140 5 -140 -5 0
-10 21 -10 48 0 38 -7 57 -35 96 -20 29 -35 60 -34 75 1 16 3 20 6 9 6 -23 31
-29 77 -18 22 5 52 6 68 3 33 -7 58 11 58 41 0 43 -53 63 -80 31 -21 -25 -40
-18 -40 15 0 17 -9 39 -19 49 -19 19 -19 20 0 37 24 22 24 56 1 77 -24 22 -55
21 -75 -1z m67 -24 c8 -14 7 -21 -6 -34 -30 -30 -75 9 -48 42 16 18 39 15 54
-8z m-6 -100 c7 -7 12 -28 11 -47 0 -33 -1 -34 -11 -13 -6 12 -15 22 -20 22
-10 0 -10 -3 2 -35 9 -24 13 -25 47 -19 25 4 35 3 28 -4 -5 -5 -27 -13 -47
-16 l-37 -7 -16 55 c-9 31 -14 60 -10 66 8 14 38 13 53 -2z m130 -81 c4 -20
-25 -34 -40 -19 -15 15 -1 44 19 40 10 -2 19 -11 21 -21z m-174 -180 c-7 -67
-24 -102 -24 -50 0 55 12 123 22 117 5 -3 6 -33 2 -67z"/>
</g>
</svg>
