<?xml version="1.0" standalone="no"?>
<!DOCTYPE svg PUBLIC "-//W3C//DTD SVG 20010904//EN"
 "http://www.w3.org/TR/2001/REC-SVG-20010904/DTD/svg10.dtd">
<svg version="1.0" xmlns="http://www.w3.org/2000/svg"
 width="50.000000pt" height="50.000000pt" viewBox="0 0 50.000000 50.000000"
 preserveAspectRatio="xMidYMid meet">

<g transform="translate(0.000000,50.000000) scale(0.100000,-0.100000)"
fill="rgba(79, 97, 255, 0.954)" stroke="none">
<path d="M280 490 c0 -5 7 -10 17 -10 15 0 15 -1 0 -18 -26 -29 -20 -42 18
-42 19 0 35 5 35 10 0 6 -10 10 -22 10 l-21 0 21 23 c30 32 28 37 -13 37 -19
0 -35 -4 -35 -10z"/>
<path d="M160 390 c0 -5 12 -10 27 -10 l27 0 -27 -28 c-39 -40 -35 -52 18 -52
25 0 45 5 45 10 0 6 -14 10 -32 10 l-32 0 27 28 c38 39 34 52 -13 52 -22 0
-40 -4 -40 -10z"/>
<path d="M7 324 c-4 -4 -7 -79 -7 -166 l0 -158 30 0 c25 0 30 4 30 25 l0 25
190 0 190 0 0 -25 c0 -21 5 -25 30 -25 l30 0 0 104 c0 82 -3 108 -16 120 -13
13 -42 16 -160 16 l-144 0 0 -50 c0 -44 -3 -50 -21 -50 -19 0 -19 1 -5 16 31
30 9 84 -34 84 -43 0 -65 -54 -34 -84 14 -15 14 -16 -5 -16 -19 0 -20 7 -23
93 -3 84 -5 92 -23 95 -12 2 -24 0 -28 -4z m33 -109 l0 -95 220 0 220 0 0 -50
c0 -27 -4 -50 -10 -50 -5 0 -10 11 -10 25 l0 25 -210 0 -210 0 0 -25 c0 -14
-4 -25 -10 -25 -6 0 -10 55 -10 145 0 90 4 145 10 145 6 0 10 -38 10 -95z
m105 -25 c0 -18 -6 -26 -23 -28 -13 -2 -25 3 -28 12 -10 26 4 48 28 44 17 -2
23 -10 23 -28z m333 -12 l3 -38 -140 0 -141 0 0 40 0 41 138 -3 137 -3 3 -37z"/>
</g>
</svg>
